HIERARCHY
ROOT Hips
{
	OFFSET 0.00 0.00 0.00
	CHANNELS 6 Xposition Yposition Zposition Xrotation Yrotation Zrotation
	JOINT Spine
	{
		OFFSET 15.853116 -14.278538 1.988036
		CHANNELS 3 Xrotation Yrotation Zrotation
		JOINT Spine1
		{
			OFFSET 15.853116 -14.278538 1.988036
			CHANNELS 3 Xrotation Yrotation Zrotation
			JOINT Neck
			{
				OFFSET 0.000000 0.000000 0.000000
				CHANNELS 3 Xrotation Yrotation Zrotation
				JOINT Head
				{
					OFFSET 12.797840 -4.607782 21.330372
					CHANNELS 3 Xrotation Yrotation Zrotation
					End Site
					{
						OFFSET 0.000000 15.000000 0.000000
					}
				}
			}
			JOINT LeftShoulder
			{
				OFFSET 5.859499 5.099750 -3.329614
				CHANNELS 3 Xrotation Yrotation Zrotation
				JOINT LeftArm
				{
					OFFSET -7.828787 5.944028 0.546386
					CHANNELS 3 Xrotation Yrotation Zrotation
					JOINT LeftForeArm
					{
						OFFSET 1.144132 -10.045782 0.515046
						CHANNELS 3 Xrotation Yrotation Zrotation
						JOINT LeftHand
						{
							OFFSET -0.448680 -4.430101 -0.120796
							CHANNELS 3 Xrotation Yrotation Zrotation
							End Site
							{
								OFFSET 0.000000 -10.000000 0.000000
							}
						}
					}
				}
			}
			JOINT RightShoulder
			{
				OFFSET -5.859499 -5.099750 3.329614
				CHANNELS 3 Xrotation Yrotation Zrotation
				JOINT RightArm
				{
					OFFSET -17.340213 21.331459 3.814122
					CHANNELS 3 Xrotation Yrotation Zrotation
					JOINT RightForeArm
					{
						OFFSET -6.358792 5.162376 2.267635
						CHANNELS 3 Xrotation Yrotation Zrotation
						JOINT RightHand
						{
							OFFSET 2.353144 1.429424 3.265465
							CHANNELS 3 Xrotation Yrotation Zrotation
							End Site
							{
								OFFSET 0.000000 -10.000000 0.000000
							}
						}
					}
				}
			}
		}
	}
	JOINT LeftUpLeg
	{
		OFFSET 4.138972 3.724292 -6.004944
		CHANNELS 3 Xrotation Yrotation Zrotation
		JOINT LeftLeg
		{
			OFFSET -14.394718 31.088008 4.510166
			CHANNELS 3 Xrotation Yrotation Zrotation
			JOINT LeftFoot
			{
				OFFSET 1.339483 15.946364 -25.493962
				CHANNELS 3 Xrotation Yrotation Zrotation
				End Site
				{
					OFFSET 0.000000 -3.000000 12.000000
				}
			}
		}
	}
	JOINT RightUpLeg
	{
		OFFSET -4.138972 -3.724292 6.004944
		CHANNELS 3 Xrotation Yrotation Zrotation
		JOINT RightLeg
		{
			OFFSET -15.580355 12.808136 1.997269
			CHANNELS 3 Xrotation Yrotation Zrotation
			JOINT RightFoot
			{
				OFFSET -29.939108 12.629630 -19.687639
				CHANNELS 3 Xrotation Yrotation Zrotation
				End Site
				{
					OFFSET 0.000000 -3.000000 12.000000
				}
			}
		}
	}
}
MOTION
Frames: 14
Frame Time: 0.033333
0.124799 0.104037 -0.136935 73.312172 78.213388 86.420539 73.312172 78.213388 86.420539 8.437809 -64.337898 -17.158248 85.749194 5.864351 54.108600 0.000000 0.000000 0.000000 245.185657 -86.018592 -98.560507 178.069542 -85.909856 -154.762948 173.261308 82.449381 138.285857 0.000000 0.000000 0.000000 13.012218 -74.889089 -93.570675 57.617548 -20.025258 -29.886030 56.019379 37.920062 49.134060 0.000000 0.000000 0.000000 147.220484 111.579338 -121.558035 -141.655829 -130.364018 -137.058405 0.000000 0.000000 0.000000 5.798614 90.721343 -82.932489 -99.351408 -116.523275 -94.698512 0.000000 0.000000 0.000000
0.160646 0.125243 -0.136137 42.952958 81.830872 81.234338 42.952958 81.830872 81.234338 9.226415 -52.787343 -12.073943 84.840110 10.400476 63.803264 0.000000 0.000000 0.000000 174.839432 -88.535897 -89.867744 -164.532135 -116.410037 -150.873230 175.839028 87.049967 125.312085 0.000000 0.000000 0.000000 -18.898117 -74.041651 -84.408840 47.139896 -15.507639 -16.647113 54.644834 40.296863 50.081115 0.000000 0.000000 0.000000 135.812428 131.902309 -132.711231 -172.415074 -102.603422 -149.223675 0.000000 0.000000 0.000000 78.444894 101.255159 -87.670058 -118.086253 -106.733745 -99.115019 0.000000 0.000000 0.000000
0.192421 0.067268 -0.122257 68.708558 72.340542 82.927507 68.708558 72.340542 82.927507 7.018016 -38.809875 -5.654591 82.445081 12.717142 59.557422 0.000000 0.000000 0.000000 1.164879 -98.047207 -89.835286 -109.588170 -139.043579 -112.293115 170.486448 83.251039 125.227536 0.000000 0.000000 0.000000 -39.542530 -75.208123 -77.701740 30.208805 -45.882945 -30.982556 63.712403 39.021694 58.636874 0.000000 0.000000 0.000000 135.857147 127.351728 -128.181790 -120.892654 -119.938190 -109.012743 0.000000 0.000000 0.000000 82.594630 101.502538 -88.484924 -126.303757 -104.550220 -100.795941 0.000000 0.000000 0.000000
0.222398 0.006441 -0.108419 82.888841 61.814043 86.175277 82.888841 61.814043 86.175277 5.037997 48.110374 5.613476 80.474391 14.926093 57.809877 0.000000 0.000000 0.000000 -2.554860 -107.178489 -90.790284 -65.676413 -155.693042 -44.977842 169.627271 83.110865 123.427629 0.000000 0.000000 0.000000 -58.995695 -76.535508 -68.277679 -0.428200 -90.484268 -41.483636 78.016395 38.512334 75.065389 0.000000 0.000000 0.000000 131.736751 122.727149 -119.826819 -67.188354 -122.970782 -74.739067 0.000000 0.000000 0.000000 91.392917 101.324637 -90.279008 -131.097389 -104.360453 -102.588765 0.000000 0.000000 0.000000
0.231313 -0.018826 -0.111003 88.783001 52.855753 89.078054 88.783001 52.855753 89.078054 2.974762 86.279069 38.626986 78.863029 16.596052 56.554121 0.000000 0.000000 0.000000 -6.958264 -117.188264 -93.587242 -65.745454 -163.015525 -34.133173 -177.197292 92.303839 129.413093 0.000000 0.000000 0.000000 -64.911183 -77.086834 -63.909331 0.234077 -89.843794 -56.283742 86.532054 43.857125 86.391235 0.000000 0.000000 0.000000 141.964691 111.391550 -116.599397 -81.412081 -134.684908 -81.504644 0.000000 0.000000 0.000000 120.171588 96.726314 -93.922269 -132.098580 -106.985086 -105.428331 0.000000 0.000000 0.000000
0.238834 -0.040049 -0.114906 92.253666 50.812479 91.837545 92.253666 50.812479 91.837545 4.906073 88.200855 69.900333 76.320526 18.717316 54.307959 0.000000 0.000000 0.000000 -12.515865 -121.655050 -97.793106 -66.299078 -169.310015 -23.268353 -167.112763 102.849138 134.912262 0.000000 0.000000 0.000000 -57.372928 -69.318387 -59.473460 68.319203 -56.110829 -75.048599 93.261429 45.051148 93.255624 0.000000 0.000000 0.000000 154.046120 103.070750 -115.500745 -87.246923 -122.911818 -88.217352 0.000000 0.000000 0.000000 159.398607 93.310564 -98.748157 -138.140098 -104.850357 -106.485222 0.000000 0.000000 0.000000
0.242442 -0.061989 -0.117498 96.269202 45.339820 96.195853 96.269202 45.339820 96.195853 50.682124 83.539153 84.701108 74.531796 23.732950 57.812950 0.000000 0.000000 0.000000 -18.848072 -132.065238 -107.122511 -66.586076 -173.818337 -14.042988 -164.641005 108.136215 140.017570 0.000000 0.000000 0.000000 -56.079245 -64.498837 -54.652059 98.011738 -45.999779 -97.740295 99.607983 45.178748 99.549324 0.000000 0.000000 0.000000 165.888788 94.737495 -108.245398 -97.290810 -125.255139 -95.167556 0.000000 0.000000 0.000000 177.240149 90.573151 -101.723678 -136.248792 -105.119874 -105.760936 0.000000 0.000000 0.000000
0.246050 -0.083930 -0.120091 99.310776 40.270637 100.952687 99.310776 40.270637 100.952687 110.114946 80.998997 93.320230 72.062855 30.189921 60.908004 0.000000 0.000000 0.000000 -24.157305 -147.106349 -124.740481 -66.801488 -177.243380 -6.410224 -162.319991 115.097818 145.763172 0.000000 0.000000 0.000000 -54.957831 -58.729954 -49.109136 110.637750 -39.926626 -114.228517 104.985880 45.290095 104.841589 0.000000 0.000000 0.000000 -167.008331 87.332899 -101.415040 -104.628175 -127.227314 -101.216812 0.000000 0.000000 0.000000 -172.683838 88.121026 -104.333490 -134.418810 -105.371874 -105.077330 0.000000 0.000000 0.000000
0.241976 -0.052350 -0.138281 97.404234 42.439179 98.088753 97.404234 42.439179 98.088753 144.756501 86.497698 94.950661 70.441019 28.554137 56.860770 0.000000 0.000000 0.000000 -24.605474 -157.921451 -138.467681 -68.657949 -171.944878 -19.910364 -156.259367 124.809433 147.682998 0.000000 0.000000 0.000000 -51.908134 -58.114798 -51.564174 92.569068 -28.788830 -94.668056 92.302777 47.770451 92.090394 0.000000 0.000000 0.000000 -138.044394 80.857505 -100.149299 -112.096663 -128.308823 -107.782768 0.000000 0.000000 0.000000 -162.235517 85.303368 -104.382528 -129.340323 -108.934233 -105.705016 0.000000 0.000000 0.000000
0.237902 -0.020771 -0.156472 95.522241 44.425535 95.633389 95.522241 44.425535 95.633389 -170.367552 91.070856 96.284954 69.004064 27.032101 53.050475 0.000000 0.000000 0.000000 -24.975386 -168.399685 -156.216406 -70.594167 -166.698245 -33.867122 -151.754072 132.126695 149.289468 0.000000 0.000000 0.000000 -48.995130 -57.583745 -53.856411 80.002627 -19.692743 -63.778523 80.170019 49.901488 81.699211 0.000000 0.000000 0.000000 -125.815065 77.093600 -99.389378 -116.239124 -128.983014 -111.747468 0.000000 0.000000 0.000000 -153.265828 82.615352 -104.429657 -125.409033 -112.411679 -106.340161 0.000000 0.000000 0.000000
0.233828 0.010809 -0.174662 93.668301 46.247519 93.512339 93.668301 46.247519 93.512339 -146.619910 94.888393 97.395947 67.723615 25.614287 49.487586 0.000000 0.000000 0.000000 -25.285868 -177.927580 -175.619602 -72.610683 -161.588021 -46.747576 -148.312740 137.670434 150.651504 0.000000 0.000000 0.000000 -46.223860 -57.120726 -55.994880 71.518765 -12.465761 -33.481520 69.493600 51.747324 73.570497 0.000000 0.000000 0.000000 -119.658757 74.652559 -98.882731 -118.847121 -129.443411 -114.377801 0.000000 0.000000 0.000000 -145.827156 80.059244 -104.474986 -122.302759 -115.782662 -106.982741 0.000000 0.000000 0.000000
0.233828 0.010809 -0.174662 93.668301 46.247519 93.512339 93.668301 46.247519 93.512339 -146.619910 94.888393 97.395947 67.723615 25.614287 49.487586 0.000000 0.000000 0.000000 -25.285868 -177.927580 -175.619602 -72.610683 -161.588021 -46.747576 -148.312740 137.670434 150.651504 0.000000 0.000000 0.000000 -46.223860 -57.120726 -55.994880 71.518765 -12.465761 -33.481520 69.493600 51.747324 73.570497 0.000000 0.000000 0.000000 -119.658757 74.652559 -98.882731 -118.847121 -129.443411 -114.377801 0.000000 0.000000 0.000000 -145.827156 80.059244 -104.474986 -122.302759 -115.782662 -106.982741 0.000000 0.000000 0.000000
0.122283 -0.000433 -0.123642 92.636054 37.622981 93.418501 92.636054 37.622981 93.418501 -169.954261 93.181310 107.419421 70.791254 24.220895 52.242668 0.000000 0.000000 0.000000 -21.761183 -177.377146 -173.453535 -79.592168 -173.569647 -31.533515 -132.989464 145.344640 143.440062 0.000000 0.000000 0.000000 -54.384377 -64.239477 -56.033533 53.034764 -19.234246 -24.872460 75.418653 48.643309 77.102278 0.000000 0.000000 0.000000 -125.420676 73.960218 -101.555961 -119.851307 -142.744970 -127.037218 0.000000 0.000000 0.000000 -155.218650 79.337973 -112.185277 -123.849486 -122.853853 -113.418642 0.000000 0.000000 0.000000
0.010739 -0.011676 -0.072623 91.552143 25.815141 93.206033 91.552143 25.815141 93.206033 -178.522608 90.835709 119.491607 73.542200 22.989921 55.150937 0.000000 0.000000 0.000000 -19.399953 -177.023790 -171.601631 -83.571655 179.540223 4.073988 -114.930526 151.539293 130.613631 0.000000 0.000000 0.000000 -73.073790 -78.442225 -56.099212 -14.835252 -134.022979 -15.326199 83.257321 44.159041 83.058359 0.000000 0.000000 0.000000 -133.646658 72.623057 -106.620059 -120.945451 -165.733928 -157.018967 0.000000 0.000000 0.000000 -163.690052 77.735181 -126.610291 -125.620433 -137.156320 -127.687313 0.000000 0.000000 0.000000
